<svg xmlns="http://www.w3.org/2000/svg">
  <defs>
    <symbol id="loading" viewBox="0 0 92 92">
      <path
        d="M46,53c-1.8,0-3.7-0.8-5-2.1c-1.3-1.3-2-3.1-2-4.9c0-1.8,0.8-3.6,2-5c1.3-1.3,3.1-2,5-2c1.8,0,3.6,0.8,4.9,2  c1.3,1.3,2.1,3.1,2.1,5c0,1.8-0.8,3.6-2.1,4.9C49.6,52.2,47.8,53,46,53z"
      />
    </symbol>

    <!-- Moon -->
    <symbol
      id="moon"
      viewBox="0 0 24 24"
      fill="none"
      stroke-linecap="round"
      stroke-linejoin="round"
    >
      <path d="M21 12.79A9 9 0 1 1 11.21 3 7 7 0 0 0 21 12.79z"></path>
    </symbol>

    <!-- Sun -->
    <symbol
      id="sun"
      viewBox="0 0 24 24"
      fill="none"
      stroke-linecap="round"
      stroke-linejoin="round"
    >
      <circle cx="12" cy="12" r="5"></circle>
      <line x1="12" y1="1" x2="12" y2="3"></line>
      <line x1="12" y1="21" x2="12" y2="23"></line>
      <line x1="4.22" y1="4.22" x2="5.64" y2="5.64"></line>
      <line x1="18.36" y1="18.36" x2="19.78" y2="19.78"></line>
      <line x1="1" y1="12" x2="3" y2="12"></line>
      <line x1="21" y1="12" x2="23" y2="12"></line>
      <line x1="4.22" y1="19.78" x2="5.64" y2="18.36"></line>
      <line x1="18.36" y1="5.64" x2="19.78" y2="4.22"></line>
    </symbol>

    <!-- Hamburger icon -->
    <symbol
      id="hamburger"
      fill="none"
      viewBox="0 0 24 24"
      stroke="currentColor"
      stroke-width="2"
    >
      <path
        stroke-linecap="round"
        stroke-linejoin="round"
        d="M4 6h16M4 12h16M4 18h16"
      />
    </symbol>

    <!-- X -->
    <symbol
      id="x"
      viewBox="0 0 24 24"
      fill="none"
      stroke="currentColor"
      stroke-width="2"
      stroke-linecap="round"
      stroke-linejoin="round"
    >
      <line x1="18" y1="6" x2="6" y2="18"></line>
      <line x1="6" y1="6" x2="18" y2="18"></line>
    </symbol>

    <!-- Slash -->
    <symbol id="slash" viewBox="0 0 14 14">
      <line x1="0" y1="0" x2="100%" y2="100%"> </line>  
    </symbol>
    <!-- LinkedIn -->
    <symbol
      id="linkedin"
      viewBox="0 0 24 24"
      fill="none"
      stroke="currentColor"
      stroke-linecap="round"
      stroke-linejoin="round"
    >
      <path
        d="M16 8a6 6 0 0 1 6 6v7h-4v-7a2 2 0 0 0-2-2 2 2 0 0 0-2 2v7h-4v-7a6 6 0 0 1 6-6z"
      ></path>
      <rect x="2" y="9" width="4" height="12"></rect>
      <circle cx="4" cy="4" r="2"></circle>
    </symbol>

    <!-- GitHub -->
    <symbol id="github" viewBox="0 0 16 16" fill="currentColor">
      <path
        d="M8 0C3.58 0 0 3.58 0 8c0 3.54 2.29 6.53 5.47 7.59.4.07.55-.17.55-.38 0-.19-.01-.82-.01-1.49-2.01.37-2.53-.49-2.69-.94-.09-.23-.48-.94-.82-1.13-.28-.15-.68-.52-.01-.53.63-.01 1.08.58 1.23.82.72 1.21 1.87.87 2.33.66.07-.52.28-.87.51-1.07-1.78-.2-3.64-.89-3.64-3.95 0-.87.31-1.59.82-2.15-.08-.2-.36-1.02.08-2.12 0 0 .67-.21 2.2.82.64-.18 1.32-.27 2-.27.68 0 1.36.09 2 .27 1.53-1.04 2.2-.82 2.2-.82.44 1.1.16 1.92.08 2.12.51.56.82 1.27.82 2.15 0 3.07-1.87 3.75-3.65 3.95.29.25.54.73.54 1.48 0 1.07-.01 1.93-.01 2.2 0 .21.15.46.55.38A8.012 8.012 0 0 0 16 8c0-4.42-3.58-8-8-8z"
      />
    </symbol>

    <!-- Instagram -->
    <symbol
      id="instagram"
      viewBox="0 0 24 24"
      fill="none"
      stroke="currentColor"
      stroke-width="2"
      stroke-linecap="round"
      stroke-linejoin="round"
    >
      <rect x="2" y="2" width="20" height="20" rx="5" ry="5"></rect>
      <path d="M16 11.37A4 4 0 1 1 12.63 8 4 4 0 0 1 16 11.37z"></path>
      <line x1="17.5" y1="6.5" x2="17.51" y2="6.5"></line>
    </symbol>

    <!-- Twitter -->
    <symbol
      id="twitter"
      viewBox="0 0 24 24"
      fill="none"
      stroke="currentColor"
      stroke-width="2"
      stroke-linecap="round"
      stroke-linejoin="round"
    >
      <path
        d="M23 3a10.9 10.9 0 0 1-3.14 1.53 4.48 4.48 0 0 0-7.86 3v1A10.66 10.66 0 0 1 3 4s-4 9 5 13a11.64 11.64 0 0 1-7 2c9 5 20 0 20-11.5a4.5 4.5 0 0 0-.08-.83A7.72 7.72 0 0 0 23 3z"
      ></path>
    </symbol>

    <!-- CSS3 -->
    <symbol id="css3" viewBox="0 0 48 48">
      <path fill="#0277BD" d="M41,5H7l3,34l14,4l14-4L41,5L41,5z"></path>
      <path fill="#039BE5" d="M24 8L24 39.9 35.2 36.7 37.7 8z"></path>
      <path
        fill="#FFF"
        d="M33.1 13L24 13 24 17 28.9 17 28.6 21 24 21 24 25 28.4 25 28.1 29.5 24 30.9 24 35.1 31.9 32.5 32.6 21 32.6 21z"
      ></path>
      <path
        fill="#EEE"
        d="M24,13v4h-8.9l-0.3-4H24z M19.4,21l0.2,4H24v-4H19.4z M19.8,27h-4l0.3,5.5l7.9,2.6v-4.2l-4.1-1.4L19.8,27z"
      ></path>
    </symbol>

    <!-- Git -->
    <symbol id="git" viewBox="0 -74 256 256">
      <g>
        <path
          d="M152.983963,37.213516 C147.387032,37.213516 143.218557,39.9617169 143.218557,46.5756347 C143.218557,51.5588676 145.965589,55.0189589 152.682374,55.0189589 C158.37516,55.0189589 162.242046,51.6640731 162.242046,46.3698995 C162.242046,40.3696804 158.781954,37.213516 152.983963,37.213516 L152.983963,37.213516 L152.983963,37.213516 Z M141.793607,83.9153973 C140.469187,85.5402374 139.149443,87.2679452 139.149443,89.3054247 C139.149443,93.3722009 144.334904,94.5960913 151.458484,94.5960913 C157.359342,94.5960913 165.397041,94.1822831 165.397041,88.6964018 C165.397041,85.435032 161.530155,85.2339726 156.643945,84.9277078 L141.793607,83.9153973 L141.793607,83.9153973 Z M171.906922,37.5209498 C173.73516,39.8611872 175.670941,43.1178813 175.670941,47.7971872 C175.670941,59.089242 166.819653,65.7008219 154.004457,65.7008219 C150.745425,65.7008219 147.794995,65.2951963 145.965589,64.7867032 L142.607196,70.1778995 L152.576,70.7869224 C170.178046,71.9091142 180.551306,72.4187763 180.551306,85.9435251 C180.551306,97.6458813 170.278575,104.255123 152.576,104.255123 C134.162703,104.255123 127.14316,99.5758174 127.14316,91.5392877 C127.14316,86.9605114 129.178301,84.5244201 132.738922,81.1613516 C129.38053,79.7422466 128.263014,77.1997808 128.263014,74.4515799 C128.263014,72.2118721 129.38053,70.1778995 131.214612,68.2432877 C133.045187,66.3133516 135.07916,64.3775708 137.521096,62.1402009 C132.536694,59.6982648 128.771507,54.4075982 128.771507,46.8783927 C128.771507,35.1807123 136.50411,27.1465205 152.066338,27.1465205 C156.441717,27.1465205 159.088219,27.5486393 161.428457,28.1635068 L181.267872,28.1635068 L181.267872,36.8078904 L171.906922,37.5209498 L171.906922,37.5209498 Z"
          fill="#2F2707"
        ></path>
        <path
          d="M199.165662,19.0340091 C193.365333,19.0340091 190.009279,15.6744475 190.009279,9.87294977 C190.009279,4.0796347 193.365333,0.92347032 199.165662,0.92347032 C205.066521,0.92347032 208.423744,4.0796347 208.423744,9.87294977 C208.423744,15.6744475 205.066521,19.0340091 199.165662,19.0340091 L199.165662,19.0340091 L199.165662,19.0340091 Z M186.039525,80.1712511 L186.039525,72.1382283 L191.229662,71.4286758 C192.654612,71.2229406 192.85684,70.9190137 192.85684,69.3900274 L192.85684,39.4801096 C192.85684,38.3637626 192.552913,37.6483653 191.53242,37.3456073 L186.039525,35.4109954 L187.15821,27.1734064 L208.219178,27.1734064 L208.219178,69.3900274 C208.219178,71.0207123 208.31737,71.2229406 209.847525,71.4286758 L215.036493,72.1382283 L215.036493,80.1712511 L186.039525,80.1712511 L186.039525,80.1712511 Z"
          fill="#2F2707"
        ></path>
        <path
          d="M255.267068,76.2272146 C250.890521,78.3617169 244.482338,80.2951598 238.68084,80.2951598 C226.575196,80.2951598 221.998758,75.4171324 221.998758,63.9158356 L221.998758,37.2626119 C221.998758,36.653589 221.998758,36.2456256 221.181662,36.2456256 L214.061589,36.2456256 L214.061589,27.1909406 C223.016913,26.1716164 226.575196,21.6945388 227.693881,10.6058813 L237.359927,10.6058813 L237.359927,25.0564384 C237.359927,25.7659909 237.359927,26.0734247 238.174685,26.0734247 L252.517699,26.0734247 L252.517699,36.2456256 L237.359927,36.2456256 L237.359927,60.5586119 C237.359927,66.5611689 238.786046,68.8990685 244.276603,68.8990685 C247.12884,68.8990685 250.075763,68.188347 252.517699,67.2730594 L255.267068,76.2272146"
          fill="#2F2707"
        ></path>
        <path
          d="M104.528658,49.5295708 L58.0126393,3.01705936 C55.3357443,0.337826484 50.990758,0.337826484 48.3103562,3.01705936 L38.6513242,12.6760913 L50.9042557,24.9290228 C53.7518174,23.9669772 57.0166941,24.6122374 59.2867945,26.8823379 C61.5674155,29.1664658 62.208,32.4593973 61.2225753,35.3163105 L73.0313059,47.1250411 C75.8882192,46.1407854 79.1846575,46.777863 81.4664475,49.0631598 C84.6553425,52.2508858 84.6553425,57.4176438 81.4664475,60.6077078 C78.2763836,63.7977717 73.1096256,63.7977717 69.9183927,60.6077078 C67.5197078,58.2066849 66.9270502,54.6834703 68.141589,51.7283653 L57.1289132,40.7156895 L57.1277443,69.6962922 C57.9050959,70.0820457 58.6391963,70.5952146 59.2867945,71.2404749 C62.4756895,74.4282009 62.4756895,79.5949589 59.2867945,82.7873607 C56.0967306,85.9762557 50.9276347,85.9762557 47.7422466,82.7873607 C44.5533516,79.5949589 44.5533516,74.4282009 47.7422466,71.2404749 C48.5301187,70.4537717 49.4418995,69.8587763 50.4144658,69.4589954 L50.4144658,40.2083653 C49.4418995,39.8109224 48.5312877,39.2194338 47.7422466,38.4268858 C45.3260274,36.0141735 44.7450594,32.4687489 45.9829772,29.5019543 L33.9053881,17.4220274 L2.01059361,49.314484 C-0.669808219,51.9960548 -0.669808219,56.3410411 2.01059361,59.020274 L48.5266119,105.533954 C51.2046758,108.213187 55.5484932,108.213187 58.2300639,105.533954 L104.528658,59.2365297 C107.20789,56.5561279 107.20789,52.2088037 104.528658,49.5295708"
          fill="#DE4C36"
        ></path>
      </g>
    </symbol>

    <!-- GitHub -->
    <!-- Reused -->

    <!-- HTML5 -->
    <symbol id="html5" viewBox="0 0 48 48">
      <path fill="#E65100" d="M41,5H7l3,34l14,4l14-4L41,5L41,5z"></path>
      <path fill="#FF6D00" d="M24 8L24 39.9 35.2 36.7 37.7 8z"></path>
      <path
        fill="#FFF"
        d="M24,25v-4h8.6l-0.7,11.5L24,35.1v-4.2l4.1-1.4l0.3-4.5H24z M32.9,17l0.3-4H24v4H32.9z"
      ></path>
      <path
        fill="#EEE"
        d="M24,30.9v4.2l-7.9-2.6L15.7,27h4l0.2,2.5L24,30.9z M19.1,17H24v-4h-9.1l0.7,12H24v-4h-4.6L19.1,17z"
      ></path>
    </symbol>

    <!-- JavaScript -->
    <symbol id="javascript" viewBox="0 0 512 512">
      <path
        d="M324 370c10 17 24 29 47 29c20 0 33-10 33 -24c0-16 -13 -22 -35 -32l-12-5c-35-15 -58 -33 -58 -72c0-36 27 -64 70 -64c31 0 53 11 68 39l-37 24c-8-15 -17 -21 -31 -21c-14 0-23 9 -23 21c0 14 9 20 30 29l12 5c41 18 64 35 64 76c0 43-34 67 -80 67c-45 0-74 -21 -88 -49zm-170 4c8 13 14 25 31 25c16 0 26-6 26 -30V203h48v164c0 50-29 72 -72 72c-39 0-61 -20 -72 -44z"
      />
    </symbol>

    <!-- Node.js -->
    <symbol id="nodejs" viewBox="0 0 448 512">
    <path d="M224 508c-6.7 0-13.5-1.8-19.4-5.2l-61.7-36.5c-9.2-5.2-4.7-7-1.7-8 12.3-4.3 14.8-5.2 27.9-12.7 1.4-.8 3.2-.5 4.6.4l47.4 28.1c1.7 1 4.1 1 5.7 0l184.7-106.6c1.7-1 2.8-3 2.8-5V149.3c0-2.1-1.1-4-2.9-5.1L226.8 37.7c-1.7-1-4-1-5.7 0L36.6 144.3c-1.8 1-2.9 3-2.9 5.1v213.1c0 2 1.1 4 2.9 4.9l50.6 29.2c27.5 13.7 44.3-2.4 44.3-18.7V167.5c0-3 2.4-5.3 5.4-5.3h23.4c2.9 0 5.4 2.3 5.4 5.3V378c0 36.6-20 57.6-54.7 57.6-10.7 0-19.1 0-42.5-11.6l-48.4-27.9C8.1 389.2.7 376.3.7 362.4V149.3c0-13.8 7.4-26.8 19.4-33.7L204.6 9c11.7-6.6 27.2-6.6 38.8 0l184.7 106.7c12 6.9 19.4 19.8 19.4 33.7v213.1c0 13.8-7.4 26.7-19.4 33.7L243.4 502.8c-5.9 3.4-12.6 5.2-19.4 5.2zm149.1-210.1c0-39.9-27-50.5-83.7-58-57.4-7.6-63.2-11.5-63.2-24.9 0-11.1 4.9-25.9 47.4-25.9 37.9 0 51.9 8.2 57.7 33.8.5 2.4 2.7 4.2 5.2 4.2h24c1.5 0 2.9-.6 3.9-1.7s1.5-2.6 1.4-4.1c-3.7-44.1-33-64.6-92.2-64.6-52.7 0-84.1 22.2-84.1 59.5 0 40.4 31.3 51.6 81.8 56.6 60.5 5.9 65.2 14.8 65.2 26.7 0 20.6-16.6 29.4-55.5 29.4-48.9 0-59.6-12.3-63.2-36.6-.4-2.6-2.6-4.5-5.3-4.5h-23.9c-3 0-5.3 2.4-5.3 5.3 0 31.1 16.9 68.2 97.8 68.2 58.4-.1 92-23.2 92-63.4z" fill="#74c41c"></path>
    </symbol>
    
    <!-- mongodb -->
    <symbol id="mongodb" viewBox="0 0 250 250">
 <g id="mongodb-leaf">
  <path id="mongodb-leaf-stem" fill="#A6A385" d="m132.118576,245.311905l-6.359024,-2.172424c0,0 0.776367,-32.416153 -10.856194,-34.742371c-7.755051,-8.99585 1.240746,-381.551559 29.158333,-1.240768c0,0 -9.615448,4.807755 -11.322021,13.02858c-1.861847,8.065567 -0.621094,25.126984 -0.621094,25.126984l0,0l0,0z"/>
  <path id="mongodb-leaf-right" fill="#499D4A" d="m133.219955,217.975906c0,0 62.153046,-34.939911 43.96405,-116.754906c-12.562012,-55.3708 -42.188004,-73.5177 -45.444,-80.497801c-3.567001,-4.963 -6.980003,-13.64824 -6.980003,-13.64824l2.326996,154.015036c0,0.156006 -6.245499,51.043503 6.008507,56.782501"/>
  <path id="mongodb-leaf-left" fill="#58AA50" d="m122.50312,215.996826c0,0 -52.269646,-35.674057 -49.167053,-98.489357c2.945869,-62.816769 39.86071,-93.681702 46.994659,-99.265772c4.6539,-4.962999 4.809174,-6.824864 5.119713,-11.787839c3.256439,6.980127 2.63678,104.384009 3.101166,115.86132c1.396027,44.204063 -2.481499,85.306969 -6.048485,93.681648l0,0l0,0z"/>
 </g>
 </symbol>

<!-- postgresql -->
<symbol id="postgresql" viewBox="0 0 256 264"><path d="M255.008 158.086c-1.535-4.649-5.556-7.887-10.756-8.664c-2.452-.366-5.26-.21-8.583.475c-5.792 1.195-10.089 1.65-13.225 1.738c11.837-19.985 21.462-42.775 27.003-64.228c8.96-34.689 4.172-50.492-1.423-57.64C233.217 10.847 211.614.683 185.552.372c-13.903-.17-26.108 2.575-32.475 4.549c-5.928-1.046-12.302-1.63-18.99-1.738c-12.537-.2-23.614 2.533-33.079 8.15c-5.24-1.772-13.65-4.27-23.362-5.864c-22.842-3.75-41.252-.828-54.718 8.685C6.622 25.672-.937 45.684.461 73.634c.444 8.874 5.408 35.874 13.224 61.48c4.492 14.718 9.282 26.94 14.237 36.33c7.027 13.315 14.546 21.156 22.987 23.972c4.731 1.576 13.327 2.68 22.368-4.85c1.146 1.388 2.675 2.767 4.704 4.048c2.577 1.625 5.728 2.953 8.875 3.74c11.341 2.835 21.964 2.126 31.027-1.848c.056 1.612.099 3.152.135 4.482c.06 2.157.12 4.272.199 6.25c.537 13.374 1.447 23.773 4.143 31.049c.148.4.347 1.01.557 1.657c1.345 4.118 3.594 11.012 9.316 16.411c5.925 5.593 13.092 7.308 19.656 7.308c3.292 0 6.433-.432 9.188-1.022c9.82-2.105 20.973-5.311 29.041-16.799c7.628-10.86 11.336-27.217 12.007-52.99c.087-.729.167-1.425.244-2.088l.16-1.362l1.797.158l.463.031c10.002.456 22.232-1.665 29.743-5.154c5.935-2.754 24.954-12.795 20.476-26.351"/><path fill="#336791" d="M237.906 160.722c-29.74 6.135-31.785-3.934-31.785-3.934c31.4-46.593 44.527-105.736 33.2-120.211c-30.904-39.485-84.399-20.811-85.292-20.327l-.287.052c-5.876-1.22-12.451-1.946-19.842-2.067c-13.456-.22-23.664 3.528-31.41 9.402c0 0-95.43-39.314-90.991 49.444c.944 18.882 27.064 142.873 58.218 105.422c11.387-13.695 22.39-25.274 22.39-25.274c5.464 3.63 12.006 5.482 18.864 4.817l.533-.452c-.166 1.7-.09 3.363.213 5.332c-8.026 8.967-5.667 10.541-21.711 13.844c-16.235 3.346-6.698 9.302-.471 10.86c7.549 1.887 25.013 4.561 36.813-11.958l-.47 1.885c3.144 2.519 5.352 16.383 4.982 28.952c-.37 12.568-.617 21.197 1.86 27.937c2.479 6.74 4.948 21.905 26.04 17.386c17.623-3.777 26.756-13.564 28.027-29.89c.901-11.606 2.942-9.89 3.07-20.267l1.637-4.912c1.887-15.733.3-20.809 11.157-18.448l2.64.232c7.99.363 18.45-1.286 24.589-4.139c13.218-6.134 21.058-16.377 8.024-13.686h.002"/><path fill="#FFF" d="M108.076 81.525c-2.68-.373-5.107-.028-6.335.902c-.69.523-.904 1.129-.962 1.546c-.154 1.105.62 2.327 1.096 2.957c1.346 1.784 3.312 3.01 5.258 3.28c.282.04.563.058.842.058c3.245 0 6.196-2.527 6.456-4.392c.325-2.336-3.066-3.893-6.355-4.35m88.784.073c-.256-1.831-3.514-2.353-6.606-1.923c-3.088.43-6.082 1.824-5.832 3.659c.2 1.427 2.777 3.863 5.827 3.863c.258 0 .518-.017.78-.054c2.036-.282 3.53-1.575 4.24-2.32c1.08-1.136 1.706-2.402 1.591-3.225"/><path fill="#FFF" d="M247.802 160.025c-1.134-3.429-4.784-4.532-10.848-3.28c-18.005 3.716-24.453 1.142-26.57-.417c13.995-21.32 25.508-47.092 31.719-71.137c2.942-11.39 4.567-21.968 4.7-30.59c.147-9.463-1.465-16.417-4.789-20.665c-13.402-17.125-33.072-26.311-56.882-26.563c-16.369-.184-30.199 4.005-32.88 5.183c-5.646-1.404-11.801-2.266-18.502-2.376c-12.288-.199-22.91 2.743-31.704 8.74c-3.82-1.422-13.692-4.811-25.765-6.756c-20.872-3.36-37.458-.814-49.294 7.571c-14.123 10.006-20.643 27.892-19.38 53.16c.425 8.501 5.269 34.653 12.913 59.698c10.062 32.964 21 51.625 32.508 55.464c1.347.449 2.9.763 4.613.763c4.198 0 9.345-1.892 14.7-8.33a529.832 529.832 0 0 1 20.261-22.926c4.524 2.428 9.494 3.784 14.577 3.92c.01.133.023.266.035.398a117.66 117.66 0 0 0-2.57 3.175c-3.522 4.471-4.255 5.402-15.592 7.736c-3.225.666-11.79 2.431-11.916 8.435c-.136 6.56 10.125 9.315 11.294 9.607c4.074 1.02 7.999 1.523 11.742 1.523c9.103 0 17.114-2.992 23.516-8.781c-.197 23.386.778 46.43 3.586 53.451c2.3 5.748 7.918 19.795 25.664 19.794c2.604 0 5.47-.303 8.623-.979c18.521-3.97 26.564-12.156 29.675-30.203c1.665-9.645 4.522-32.676 5.866-45.03c2.836.885 6.487 1.29 10.434 1.289c8.232 0 17.731-1.749 23.688-4.514c6.692-3.108 18.768-10.734 16.578-17.36Zm-44.106-83.48c-.061 3.647-.563 6.958-1.095 10.414c-.573 3.717-1.165 7.56-1.314 12.225c-.147 4.54.42 9.26.968 13.825c1.108 9.22 2.245 18.712-2.156 28.078a36.508 36.508 0 0 1-1.95-4.009c-.547-1.326-1.735-3.456-3.38-6.404c-6.399-11.476-21.384-38.35-13.713-49.316c2.285-3.264 8.084-6.62 22.64-4.813Zm-17.644-61.787c21.334.471 38.21 8.452 50.158 23.72c9.164 11.711-.927 64.998-30.14 110.969a171.33 171.33 0 0 0-.886-1.117l-.37-.462c7.549-12.467 6.073-24.802 4.759-35.738c-.54-4.488-1.05-8.727-.92-12.709c.134-4.22.692-7.84 1.232-11.34c.663-4.313 1.338-8.776 1.152-14.037c.139-.552.195-1.204.122-1.978c-.475-5.045-6.235-20.144-17.975-33.81c-6.422-7.475-15.787-15.84-28.574-21.482c5.5-1.14 13.021-2.203 21.442-2.016ZM66.674 175.778c-5.9 7.094-9.974 5.734-11.314 5.288c-8.73-2.912-18.86-21.364-27.791-50.624c-7.728-25.318-12.244-50.777-12.602-57.916c-1.128-22.578 4.345-38.313 16.268-46.769c19.404-13.76 51.306-5.524 64.125-1.347c-.184.182-.376.352-.558.537c-21.036 21.244-20.537 57.54-20.485 59.759c-.002.856.07 2.068.168 3.735c.362 6.105 1.036 17.467-.764 30.334c-1.672 11.957 2.014 23.66 10.111 32.109a36.275 36.275 0 0 0 2.617 2.468c-3.604 3.86-11.437 12.396-19.775 22.426Zm22.479-29.993c-6.526-6.81-9.49-16.282-8.133-25.99c1.9-13.592 1.199-25.43.822-31.79c-.053-.89-.1-1.67-.127-2.285c3.073-2.725 17.314-10.355 27.47-8.028c4.634 1.061 7.458 4.217 8.632 9.645c6.076 28.103.804 39.816-3.432 49.229c-.873 1.939-1.698 3.772-2.402 5.668l-.546 1.466c-1.382 3.706-2.668 7.152-3.465 10.424c-6.938-.02-13.687-2.984-18.819-8.34Zm1.065 37.9c-2.026-.506-3.848-1.385-4.917-2.114c.893-.42 2.482-.992 5.238-1.56c13.337-2.745 15.397-4.683 19.895-10.394c1.031-1.31 2.2-2.794 3.819-4.602l.002-.002c2.411-2.7 3.514-2.242 5.514-1.412c1.621.67 3.2 2.702 3.84 4.938c.303 1.056.643 3.06-.47 4.62c-9.396 13.156-23.088 12.987-32.921 10.526Zm69.799 64.952c-16.316 3.496-22.093-4.829-25.9-14.346c-2.457-6.144-3.665-33.85-2.808-64.447c.011-.407-.047-.8-.159-1.17a15.444 15.444 0 0 0-.456-2.162c-1.274-4.452-4.379-8.176-8.104-9.72c-1.48-.613-4.196-1.738-7.46-.903c.696-2.868 1.903-6.107 3.212-9.614l.549-1.475c.618-1.663 1.394-3.386 2.214-5.21c4.433-9.848 10.504-23.337 3.915-53.81c-2.468-11.414-10.71-16.988-23.204-15.693c-7.49.775-14.343 3.797-17.761 5.53c-.735.372-1.407.732-2.035 1.082c.954-11.5 4.558-32.992 18.04-46.59c8.489-8.56 19.794-12.788 33.568-12.56c27.14.444 44.544 14.372 54.366 25.979c8.464 10.001 13.047 20.076 14.876 25.51c-13.755-1.399-23.11 1.316-27.852 8.096c-10.317 14.748 5.644 43.372 13.315 57.129c1.407 2.521 2.621 4.7 3.003 5.626c2.498 6.054 5.732 10.096 8.093 13.046c.724.904 1.426 1.781 1.96 2.547c-4.166 1.201-11.649 3.976-10.967 17.847c-.55 6.96-4.461 39.546-6.448 51.059c-2.623 15.21-8.22 20.875-23.957 24.25Zm68.104-77.936c-4.26 1.977-11.389 3.46-18.161 3.779c-7.48.35-11.288-.838-12.184-1.569c-.42-8.644 2.797-9.547 6.202-10.503c.535-.15 1.057-.297 1.561-.473c.313.255.656.508 1.032.756c6.012 3.968 16.735 4.396 31.874 1.271l.166-.033c-2.042 1.909-5.536 4.471-10.49 6.772Z"/></symbol>
    <!--  npm -->
    <symbol id="npm" viewBox="0 0 512 512">
      <rect width="512" height="512" rx="15%" fill="#fff" />
      <path
        fill="none"
        stroke="#cb3837"
        stroke-width="22"
        d="m234 311h213v-112H65v112h113V210m-12 123h90M133 232v68m112-68v45m45-67v90m67-68v68m45-68v68"
      />
    </symbol>

    <!-- Parceljs -->
    <symbol id="parceljs" viewBox="0 0 1068.58691 218.40186" fill="#f87171">
      <path
        d="M134.10156,41.99756c25.2002,0,42.6001,17.40039,42.6001,42.60059v54.60059c0,25.2002-17.3999,42.60059-42.6001,42.60059H66.90088v76.20117H23.7002V41.99756Zm24,46.80078c0-18.6001-10.80029-29.40039-29.40039-29.40039H42.30029V240.6001h6V164.39893h80.40088c18.6001,0,29.40039-10.7998,29.40039-29.40039ZM128.70117,65.39795c15.00049,0,23.40039,8.40039,23.40039,23.40039v46.2002c0,15.00049-8.3999,23.40039-23.40039,23.40039H48.30029v-93.001Zm-5.3999,75.60107c6.6001,0,10.2002-3.6001,10.2002-10.2002V92.99854c0-6.6001-3.6001-10.2002-10.2002-10.2002H66.90088V140.999Z"
        transform="translate(-23.7002 -40.79785)"
      ></path>
      <path
        d="M223.79834,258.00049H179.09766L248.69873,41.99756h50.40039L368.7002,258.00049h-46.501l-14.09961-48.60156H238.19873ZM343.19922,240.6001l-55.5-181.20215H260.09863L203.69824,240.6001h5.7002l15-48.60059H322.7998L337.499,240.6001ZM263.69873,65.39795,226.19824,185.99951H320.999L284.09912,65.39795Zm9.8999,24.00049,22.80029,79.20068h-46.2002Z"
        transform="translate(-23.7002 -40.79785)"
      ></path>
      <path
        d="M509.99512,258.00049l-34.7998-80.10107H440.39453v80.10107h-43.2002V41.99756H507.2959c25.2002,0,42.59961,17.40039,42.59961,42.60059v50.70068c0,20.3999-11.39941,35.7002-29.39941,40.80029l36,81.90137Zm18.90039-17.40039-34.7998-79.80127h7.7998c18.60059,0,29.40039-10.7998,29.40039-29.3999V88.79834c0-18.6001-10.7998-29.40039-29.40039-29.40039H415.79492V240.6001h6V160.79883h66L522.5957,240.6001ZM525.2959,131.39893c0,15-8.40039,23.3999-23.40039,23.3999H421.79492V65.39795h80.10059c15,0,23.40039,8.40039,23.40039,23.40039Zm-28.80078,6.2998c6.60059,0,10.2002-3.6001,10.2002-10.2002v-34.5c0-6.6001-3.59961-10.2002-10.2002-10.2002H440.39453v54.90039Z"
        transform="translate(-23.7002 -40.79785)"
      ></path>
      <path
        d="M697.49316,91.79834c0-6.6001-3.59961-10.2002-10.2002-10.2002h-46.7998c-6.60059,0-10.2002,3.6001-10.2002,10.2002V208.19971c0,6.59961,3.59961,10.19922,10.2002,10.19922H687.293c6.60059,0,10.2002-3.59961,10.2002-10.19922V181.79932h43.20117V216.6001c0,25.19922-17.40039,42.59961-42.60059,42.59961H629.69238c-25.2002,0-42.59961-17.40039-42.59961-42.59961V83.39844c0-25.20068,17.39941-42.60059,42.59961-42.60059h68.40137c25.2002,0,42.60059,17.3999,42.60059,42.60059v34.80029H697.49316Zm-4.7998-27.6001c15,0,23.40039,8.3999,23.40039,23.3999v13.80029h6V87.59814c0-18.6001-10.7998-29.40039-29.40039-29.40039H635.09277c-18.59961,0-29.40039,10.80029-29.40039,29.40039V212.39893c0,18.60059,10.80078,29.40039,29.40039,29.40039h57.60059c18.60059,0,29.40039-10.7998,29.40039-29.40039V199.19971h-6v13.19922c0,15.001-8.40039,23.40039-23.40039,23.40039H635.09277c-15,0-23.40039-8.39941-23.40039-23.40039V87.59814c0-15,8.40039-23.3999,23.40039-23.3999Z"
        transform="translate(-23.7002 -40.79785)"
      ></path>
      <path
        d="M920.38965,41.99756V82.79834H822.28809v44.40039h79.501V167.999h-79.501v49.20068h98.10156v40.80078H779.08789V41.99756ZM901.78906,240.6001v-6H803.68848v-84.001h79.501v-6.00049h-79.501V65.39795h98.10059v-6H797.68848V240.6001Z"
        transform="translate(-23.7002 -40.79785)"
      ></path>
      <path
        d="M1001.68555,41.99756V217.19971h90.60156v40.80078H958.48535V41.99756Zm72.001,198.60254v-6H983.08594V59.39795h-6V240.6001Z"
        transform="translate(-23.7002 -40.79785)"
      ></path>
    </symbol>

    
    <!-- Reactjs -->
    <symbol id="reactjs" viewBox="0 -14 256 256">
      <g>
        <path
          d="M210.483381,73.8236374 C207.827698,72.9095503 205.075867,72.0446761 202.24247,71.2267368 C202.708172,69.3261098 203.135596,67.4500894 203.515631,65.6059664 C209.753843,35.3248922 205.675082,10.9302478 191.747328,2.89849283 C178.392359,-4.80289661 156.551327,3.22703567 134.492936,22.4237776 C132.371761,24.2697233 130.244662,26.2241201 128.118477,28.2723861 C126.701777,26.917204 125.287358,25.6075897 123.876584,24.3549348 C100.758745,3.82852863 77.5866802,-4.82157937 63.6725966,3.23341515 C50.3303869,10.9571328 46.3792156,33.8904224 51.9945178,62.5880206 C52.5367729,65.3599011 53.1706189,68.1905639 53.8873982,71.068617 C50.6078941,71.9995641 47.4418534,72.9920277 44.4125156,74.0478303 C17.3093297,83.497195 0,98.3066828 0,113.667995 C0,129.533287 18.5815786,145.446423 46.8116526,155.095373 C49.0394553,155.856809 51.3511025,156.576778 53.7333796,157.260293 C52.9600965,160.37302 52.2875179,163.423318 51.7229345,166.398431 C46.3687351,194.597975 50.5500231,216.989464 63.8566899,224.664425 C77.6012619,232.590464 100.66852,224.443422 123.130185,204.809231 C124.905501,203.257196 126.687196,201.611293 128.472081,199.886102 C130.785552,202.113904 133.095375,204.222319 135.392897,206.199955 C157.14963,224.922338 178.637969,232.482469 191.932332,224.786092 C205.663234,216.837268 210.125675,192.78347 204.332202,163.5181 C203.88974,161.283006 203.374826,158.99961 202.796573,156.675661 C204.416503,156.196743 206.006814,155.702335 207.557482,155.188332 C236.905331,145.46465 256,129.745175 256,113.667995 C256,98.2510906 238.132466,83.3418093 210.483381,73.8236374 L210.483381,73.8236374 Z M204.118035,144.807565 C202.718197,145.270987 201.281904,145.718918 199.818271,146.153177 C196.578411,135.896354 192.205739,124.989735 186.854729,113.72131 C191.961041,102.721277 196.164656,91.9540963 199.313837,81.7638014 C201.93261,82.5215915 204.474374,83.3208483 206.923636,84.1643056 C230.613348,92.3195488 245.063763,104.377206 245.063763,113.667995 C245.063763,123.564379 229.457753,136.411268 204.118035,144.807565 L204.118035,144.807565 Z M193.603754,165.642007 C196.165567,178.582766 196.531475,190.282717 194.834536,199.429057 C193.309843,207.64764 190.243595,213.12715 186.452366,215.321689 C178.384612,219.991462 161.131788,213.921395 142.525146,197.909832 C140.392124,196.074366 138.243609,194.114502 136.088259,192.040261 C143.301619,184.151133 150.510878,174.979732 157.54698,164.793993 C169.922699,163.695814 181.614905,161.900447 192.218042,159.449363 C192.740247,161.555956 193.204126,163.621993 193.603754,165.642007 L193.603754,165.642007 Z M87.2761866,214.514686 C79.3938934,217.298414 73.1160375,217.378157 69.3211631,215.189998 C61.2461189,210.532528 57.8891498,192.554265 62.4682434,168.438039 C62.9927272,165.676183 63.6170041,162.839142 64.3365173,159.939216 C74.8234575,162.258154 86.4299951,163.926841 98.8353334,164.932519 C105.918826,174.899534 113.336329,184.06091 120.811247,192.08264 C119.178102,193.65928 117.551336,195.16028 115.933685,196.574699 C106.001303,205.256705 96.0479605,211.41654 87.2761866,214.514686 L87.2761866,214.514686 Z M50.3486141,144.746959 C37.8658105,140.48046 27.5570398,134.935332 20.4908634,128.884403 C14.1414664,123.446815 10.9357817,118.048415 10.9357817,113.667995 C10.9357817,104.34622 24.8334611,92.4562517 48.0123604,84.3748281 C50.8247961,83.3942121 53.7689223,82.4701001 56.8242337,81.6020363 C60.0276398,92.0224477 64.229889,102.917218 69.3011135,113.93411 C64.1642716,125.11459 59.9023288,136.182975 56.6674809,146.725506 C54.489347,146.099407 52.3791089,145.440499 50.3486141,144.746959 L50.3486141,144.746959 Z M62.7270678,60.4878073 C57.9160346,35.9004118 61.1112387,17.3525532 69.1516515,12.6982729 C77.7160924,7.74005624 96.6544653,14.8094222 116.614922,32.5329619 C117.890816,33.6657739 119.171723,34.8514442 120.456275,36.0781256 C113.018267,44.0647686 105.66866,53.1573386 98.6480514,63.0655695 C86.6081646,64.1815215 75.0831931,65.9741531 64.4868907,68.3746571 C63.8206914,65.6948233 63.2305903,63.0619242 62.7270678,60.4878073 L62.7270678,60.4878073 Z M173.153901,87.7550367 C170.620796,83.3796304 168.020249,79.1076627 165.369124,74.9523483 C173.537126,75.9849113 181.362914,77.3555864 188.712066,79.0329319 C186.505679,86.1041206 183.755673,93.4974728 180.518546,101.076741 C178.196419,96.6680702 175.740322,92.2229454 173.153901,87.7550367 L173.153901,87.7550367 Z M128.122121,43.8938899 C133.166461,49.3588189 138.218091,55.4603279 143.186789,62.0803968 C138.179814,61.8439007 133.110868,61.720868 128.000001,61.720868 C122.937434,61.720868 117.905854,61.8411667 112.929865,62.0735617 C117.903575,55.515009 122.99895,49.4217021 128.122121,43.8938899 L128.122121,43.8938899 Z M82.8018984,87.830679 C80.2715265,92.2183886 77.8609975,96.6393627 75.5753239,101.068539 C72.3906004,93.5156998 69.6661103,86.0886276 67.440586,78.9171899 C74.7446255,77.2826781 82.5335049,75.9461789 90.6495601,74.9332099 C87.9610684,79.1268011 85.3391054,83.4302106 82.8018984,87.8297677 L82.8018984,87.830679 L82.8018984,87.830679 Z M90.8833221,153.182899 C82.4979621,152.247395 74.5919739,150.979704 67.289757,149.390303 C69.5508242,142.09082 72.3354636,134.505173 75.5876271,126.789657 C77.8792246,131.215644 80.2993228,135.638441 82.8451877,140.03572 L82.8456433,140.03572 C85.4388987,144.515476 88.1255676,148.90364 90.8833221,153.182899 L90.8833221,153.182899 Z M128.424691,184.213105 C123.24137,178.620587 118.071264,172.434323 113.021912,165.780078 C117.923624,165.972373 122.921029,166.0708 128.000001,166.0708 C133.217953,166.0708 138.376211,165.953235 143.45336,165.727219 C138.468257,172.501308 133.434855,178.697141 128.424691,184.213105 L128.424691,184.213105 Z M180.622896,126.396409 C184.044571,134.195313 186.929004,141.741317 189.219234,148.9164 C181.796719,150.609693 173.782736,151.973534 165.339049,152.986959 C167.996555,148.775595 170.619884,144.430263 173.197646,139.960532 C175.805484,135.438399 178.28163,130.90943 180.622896,126.396409 L180.622896,126.396409 Z M163.724586,134.496971 C159.722835,141.435557 155.614455,148.059271 151.443648,154.311611 C143.847063,154.854776 135.998946,155.134562 128.000001,155.134562 C120.033408,155.134562 112.284171,154.887129 104.822013,154.402745 C100.48306,148.068386 96.285368,141.425078 92.3091341,134.556664 L92.3100455,134.556664 C88.3442923,127.706935 84.6943232,120.799333 81.3870228,113.930466 C84.6934118,107.045648 88.3338117,100.130301 92.276781,93.292874 L92.2758697,93.294241 C96.2293193,86.4385872 100.390102,79.8276317 104.688954,73.5329157 C112.302398,72.9573964 120.109505,72.6571055 127.999545,72.6571055 L128.000001,72.6571055 C135.925583,72.6571055 143.742714,72.9596746 151.353879,73.5402067 C155.587114,79.7888993 159.719645,86.3784378 163.688588,93.2350031 C167.702644,100.168578 171.389978,107.037901 174.724618,113.77508 C171.400003,120.627999 167.720871,127.566587 163.724586,134.496971 L163.724586,134.496971 Z M186.284677,12.3729198 C194.857321,17.3165548 198.191049,37.2542268 192.804953,63.3986692 C192.461372,65.0669011 192.074504,66.7661189 191.654369,68.4881206 C181.03346,66.0374921 169.500286,64.2138746 157.425315,63.0810626 C150.391035,53.0639249 143.101577,43.9572289 135.784778,36.073113 C137.751934,34.1806885 139.716356,32.3762092 141.672575,30.673346 C160.572216,14.2257007 178.236518,7.73185406 186.284677,12.3729198 L186.284677,12.3729198 Z M128.000001,90.8080696 C140.624975,90.8080696 150.859926,101.042565 150.859926,113.667995 C150.859926,126.292969 140.624975,136.527922 128.000001,136.527922 C115.375026,136.527922 105.140075,126.292969 105.140075,113.667995 C105.140075,101.042565 115.375026,90.8080696 128.000001,90.8080696 L128.000001,90.8080696 Z"
          fill="#00D8FF"
        ></path>
      </g>
    </symbol>

    <!-- sass -->
    <symbol id="sass" viewBox="0 0 32 32">
      <path
        d="M26.11,17.572a5.8,5.8,0,0,0-2.537.588,5.345,5.345,0,0,1-.568-1.314,3.53,3.53,0,0,1-.051-1.1,9.811,9.811,0,0,1,.332-1.192c-.005-.051-.061-.292-.624-.3s-1.048.107-1.1.256a6.171,6.171,0,0,0-.235.834,19.686,19.686,0,0,1-1.713,3.294,3.186,3.186,0,0,1-.44-2.066,9.811,9.811,0,0,1,.332-1.192c-.005-.051-.061-.292-.624-.3s-1.048.107-1.1.256-.118.5-.235.834-1.483,3.386-1.841,4.173c-.184.4-.343.726-.455.946h0a.233.233,0,0,1-.02.041c-.1.189-.153.292-.153.292v.005c-.077.138-.159.266-.2.266a1.711,1.711,0,0,1,.01-.869c.2-1.059.69-2.705.685-2.762,0-.031.092-.317-.317-.465a.508.508,0,0,0-.578.1c-.036,0-.061.087-.061.087s.445-1.851-.849-1.851a3.855,3.855,0,0,0-2.475,1.683c-.348.189-1.089.593-1.882,1.028-.3.169-.614.338-.905.5-.02-.02-.041-.046-.061-.066C6.87,17.6,3.975,16.416,4.1,14.171c.046-.818.327-2.966,5.559-5.575,4.306-2.122,7.733-1.534,8.326-.23.849,1.862-1.836,5.319-6.285,5.82a3.351,3.351,0,0,1-2.813-.711c-.235-.256-.271-.271-.358-.22-.143.077-.051.307,0,.44a2.626,2.626,0,0,0,1.606,1.263,8.55,8.55,0,0,0,5.217-.517c2.7-1.043,4.8-3.943,4.184-6.372-.619-2.465-4.71-3.278-8.582-1.9A19.5,19.5,0,0,0,4.359,9.952c-2.133,1.995-2.47,3.728-2.332,4.455.5,2.578,4.051,4.255,5.472,5.5-.072.041-.138.077-.194.107-.711.353-3.421,1.77-4.1,3.268-.767,1.7.123,2.915.711,3.079a4.374,4.374,0,0,0,4.71-1.908A4.725,4.725,0,0,0,9.049,20.1a.107.107,0,0,0-.02-.031l.557-.327c.363-.215.721-.414,1.028-.578a6.74,6.74,0,0,0-.363,1.862,3.886,3.886,0,0,0,.834,2.7.921.921,0,0,0,.675.22c.6,0,.875-.5,1.176-1.094.368-.726.7-1.57.7-1.57s-.414,2.281.711,2.281c.409,0,.823-.532,1.008-.8v.005s.01-.015.031-.051l.066-.107v-.01c.164-.286.532-.936,1.079-2.015.706-1.391,1.386-3.13,1.386-3.13a8.888,8.888,0,0,0,.271,1.13,10.643,10.643,0,0,0,.583,1.309c-.164.23-.266.358-.266.358l.005.005c-.133.174-.276.363-.435.547a16.3,16.3,0,0,0-1.314,1.647.447.447,0,0,0,.123.6,1.116,1.116,0,0,0,.685.113,3.147,3.147,0,0,0,1.028-.235,3.45,3.45,0,0,0,.885-.465,1.98,1.98,0,0,0,.849-1.744,3.521,3.521,0,0,0-.322-1.233c.051-.072.1-.143.148-.215a23.428,23.428,0,0,0,1.534-2.649,8.888,8.888,0,0,0,.271,1.13,7.57,7.57,0,0,0,.5,1.125A4.861,4.861,0,0,0,20.965,20.8c-.322.931-.072,1.35.4,1.447a1.425,1.425,0,0,0,.747-.153,3.4,3.4,0,0,0,.946-.486,2.126,2.126,0,0,0,1.043-1.729,3.268,3.268,0,0,0-.235-1.023,5.356,5.356,0,0,1,2.716-.312c2.434.286,2.915,1.805,2.823,2.445a1.618,1.618,0,0,1-.772,1.094c-.169.107-.225.143-.21.22.02.113.1.107.245.087A1.9,1.9,0,0,0,30,20.7c.077-1.5-1.355-3.145-3.887-3.13ZM7.33,23.9c-.808.88-1.933,1.212-2.419.931-.522-.3-.317-1.6.675-2.532a12.884,12.884,0,0,1,1.9-1.417c.118-.072.292-.174.5-.3l.056-.031h0l.123-.077A3.493,3.493,0,0,1,7.33,23.9Zm5.881-4c-.281.685-.869,2.44-1.227,2.342-.307-.082-.5-1.412-.061-2.726a6.193,6.193,0,0,1,.956-1.754c.44-.491.926-.655,1.043-.455a9.062,9.062,0,0,1-.711,2.593Zm4.853,2.322c-.118.061-.23.1-.281.072-.036-.02.051-.1.051-.1s.609-.655.849-.951c.138-.174.3-.378.476-.609V20.7c0,.782-.757,1.309-1.094,1.524Zm3.744-.854c-.087-.061-.072-.266.22-.905a3.408,3.408,0,0,1,.834-1.074,1.448,1.448,0,0,1,.082.471,1.547,1.547,0,0,1-1.135,1.509Z"
        style="fill: #cd6799"
      />
    </symbol>

    <!-- vscode -->
    <symbol id="vscode" viewBox="0 0 32 32">
      <path
        d="M29.01,5.03,23.244,2.254a1.742,1.742,0,0,0-1.989.338L2.38,19.8A1.166,1.166,0,0,0,2.3,21.447c.025.027.05.053.077.077l1.541,1.4a1.165,1.165,0,0,0,1.489.066L28.142,5.75A1.158,1.158,0,0,1,30,6.672V6.605A1.748,1.748,0,0,0,29.01,5.03Z"
        style="fill: #0065a9"
      />
      <path
        d="M29.01,26.97l-5.766,2.777a1.745,1.745,0,0,1-1.989-.338L2.38,12.2A1.166,1.166,0,0,1,2.3,10.553c.025-.027.05-.053.077-.077l1.541-1.4A1.165,1.165,0,0,1,5.41,9.01L28.142,26.25A1.158,1.158,0,0,0,30,25.328V25.4A1.749,1.749,0,0,1,29.01,26.97Z"
        style="fill: #007acc"
      />
      <path
        d="M23.244,29.747a1.745,1.745,0,0,1-1.989-.338A1.025,1.025,0,0,0,23,28.684V3.316a1.024,1.024,0,0,0-1.749-.724,1.744,1.744,0,0,1,1.989-.339l5.765,2.772A1.748,1.748,0,0,1,30,6.6V25.4a1.748,1.748,0,0,1-.991,1.576Z"
        style="fill: #1f9cf0"
      />
    </symbol>

    <!-- webpack -->
    <symbol id="webpack" viewBox="-17 0 290 290">
      <g>
        <polygon
          fill="#FFFFFF"
          points="128 0.0483018868 256 72.4528302 256 217.310189 128 289.714717 0 217.310189 0 72.4528302"
        />
        <path
          d="M233.153208,212.286792 L132.250566,269.427925 L132.250566,224.990189 L195.139623,190.357736 L233.153208,212.286792 Z M240.060377,206.055849 L240.060377,86.6535849 L203.157736,107.954717 L203.157736,184.754717 L240.060377,206.055849 Z M22.4603774,212.286792 L123.363019,269.379623 L123.363019,224.941887 L60.4739623,190.357736 L22.4603774,212.286792 L22.4603774,212.286792 Z M15.5532075,206.055849 L15.5532075,86.6535849 L52.4558491,107.954717 L52.4558491,184.754717 L15.5532075,206.055849 L15.5532075,206.055849 Z M19.8520755,78.925283 L123.363019,20.3833962 L123.363019,63.3720755 L57.0445283,99.84 L56.5132075,100.129811 L19.8520755,78.925283 L19.8520755,78.925283 Z M235.713208,78.925283 L132.250566,20.3833962 L132.250566,63.3720755 L198.520755,99.8883019 L199.052075,100.178113 L235.713208,78.925283 L235.713208,78.925283 Z"
          fill="#8ED6FB"
        />
        <path
          d="M123.363019,214.846792 L61.3433962,180.697358 L61.3433962,113.123019 L123.363019,148.914717 L123.363019,214.846792 L123.363019,214.846792 Z M132.250566,214.846792 L194.270189,180.74566 L194.270189,113.123019 L132.250566,148.914717 L132.250566,214.846792 Z M65.4973585,105.298113 L127.806792,71.0520755 L190.067925,105.298113 L127.806792,141.234717 L65.4973585,105.298113 L65.4973585,105.298113 Z"
          fill="#1C78C0"
        />
      </g>
    </symbol>

    <!-- ////////// Section 4 /////////// -->
    <symbol id="go-back" viewBox="0 0 24 24">
      <path
        stroke-linecap="round"
        stroke-linejoin="round"
        d="M15 19l-7-7 7-7"
      />
    </symbol>
    <symbol id="go-forward" viewBox="0 0 24 24">
      <path stroke-linecap="round" stroke-linejoin="round" d="M9 5l7 7-7 7" />
    </symbol>
    <!-- ////////////////////////// -->

    <symbol
      id="external-link"
      fill="none"
      viewBox="0 0 24 24"
      stroke="currentColor"
    >
      <path
        stroke-linecap="round"
        stroke-linejoin="round"
        d="M10 6H6a2 2 0 00-2 2v10a2 2 0 002 2h10a2 2 0 002-2v-4M14 4h6m0 0v6m0-6L10 14"
      />
    </symbol>

    <symbol id="heart" viewBox="0 0 20 20" fill="#e63946">
      <path
        fill-rule="evenodd"
        d="M3.172 5.172a4 4 0 015.656 0L10 6.343l1.172-1.171a4 4 0 115.656 5.656L10 17.657l-6.828-6.829a4 4 0 010-5.656z"
        clip-rule="evenodd"
      />
    </symbol>

    <symbol id="up-arrow" fill="none" viewBox="0 0 24 24">
      <path
        stroke-linecap="round"
        stroke-linejoin="round"
        d="M7 11l5-5m0 0l5 5m-5-5v12"
      />
    </symbol>

    <symbol id="book" viewBox="0 0 24 24" fill="none">
      <path
        stroke-linecap="round"
        stroke-linejoin="round"
        d="M12 6.253v13m0-13C10.832 5.477 9.246 5 7.5 5S4.168 5.477 3 6.253v13C4.168 18.477 5.754 18 7.5 18s3.332.477 4.5 1.253m0-13C13.168 5.477 14.754 5 16.5 5c1.747 0 3.332.477 4.5 1.253v13C19.832 18.477 18.247 18 16.5 18c-1.746 0-3.332.477-4.5 1.253"
      />
    </symbol>

    <symbol id="direct-message" viewBox="0 0 24 24">
      <path
        stroke-linecap="round"
        stroke-linejoin="round"
        d="M8 10h.01M12 10h.01M16 10h.01M9 16H5a2 2 0 01-2-2V6a2 2 0 012-2h14a2 2 0 012 2v8a2 2 0 01-2 2h-5l-5 5v-5z"
      />
    </symbol>

    <symbol id="outbound-call" viewBox="0 0 24 24">
      <path
        stroke-linecap="round"
        stroke-linejoin="round"
        d="M16 3h5m0 0v5m0-5l-6 6M5 3a2 2 0 00-2 2v1c0 8.284 6.716 15 15 15h1a2 2 0 002-2v-3.28a1 1 0 00-.684-.948l-4.493-1.498a1 1 0 00-1.21.502l-1.13 2.257a11.042 11.042 0 01-5.516-5.517l2.257-1.128a1 1 0 00.502-1.21L9.228 3.683A1 1 0 008.279 3H5z"
      />
    </symbol>

    <symbol id="sheet" viewBox="0 0 24 24">
      <path
        stroke-linecap="round"
        stroke-linejoin="round"
        d="M9 12h6m-6 4h6m2 5H7a2 2 0 01-2-2V5a2 2 0 012-2h5.586a1 1 0 01.707.293l5.414 5.414a1 1 0 01.293.707V19a2 2 0 01-2 2z"
      />
    </symbol>

    <symbol id="code" viewBox="0 0 24 24">
      <path
        strokeLinecap="round"
        strokeLinejoin="round"
        d="M10 20l4-16m4 4l4 4-4 4M6 16l-4-4 4-4"
      />
    </symbol>

    <symbol id="grad" viewBox="0 0 24 24">
      <path d="M12 14l9-5-9-5-9 5 9 5z" />
      <path
        d="M12 14l6.16-3.422a12.083 12.083 0 01.665 6.479A11.952 11.952 0 0012 20.055a11.952 11.952 0 00-6.824-2.998 12.078 12.078 0 01.665-6.479L12 14z"
      />
      <path
        stroke-linecap="round"
        stroke-linejoin="round"
        d="M12 14l9-5-9-5-9 5 9 5zm0 0l6.16-3.422a12.083 12.083 0 01.665 6.479A11.952 11.952 0 0012 20.055a11.952 11.952 0 00-6.824-2.998 12.078 12.078 0 01.665-6.479L12 14zm-4 6v-7.5l4-2.222"
      />
    </symbol>
  </defs>
</svg>
